<?xml version="1.0" standalone="no"?><!DOCTYPE svg PUBLIC "-//W3C//DTD SVG 1.1//EN" "http://www.w3.org/Graphics/SVG/1.1/DTD/svg11.dtd"><svg t="1527405346016" class="icon" style="" viewBox="0 0 1024 1024" version="1.1" xmlns="http://www.w3.org/2000/svg" p-id="4211" xmlns:xlink="http://www.w3.org/1999/xlink" width="200" height="200"><defs><style type="text/css"></style></defs><path d="M806.058479 919.409746 217.918942 919.409746c-23.75409 0-43.037354-19.305843-43.037354-43.037354L174.881588 147.627607c0-23.73151 19.283264-43.037354 43.037354-43.037354l394.719824 0 236.457067 227.854112 0 543.905447C849.095832 900.081323 829.812569 919.409746 806.058479 919.409746zM217.918942 121.818743c-14.247938 0-25.831444 11.583506-25.831444 25.831444l0 728.722205c0 14.247938 11.583506 25.831444 25.831444 25.831444l588.139537 0c14.247938 0 25.831444-11.583506 25.831444-25.831444L831.889923 339.760265 605.684146 121.818743 217.918942 121.818743z" p-id="4212" fill="#33a809"></path><path d="M643.415215 343.756913c-11.380287 0-22.083175-4.380507-30.189372-12.351224-8.196516-8.061036-12.757663-18.831665-12.847982-30.324851l-1.467696-181.542668 17.22849-0.13548 1.467696 181.542668c0.1129 14.157619 11.696406 25.605645 25.831444 25.605645 0.06774 0 0.13548 0 0.225799 0l189.671444-1.535436 0.13548 17.20591-189.671444 1.535436C643.641014 343.756913 643.528115 343.756913 643.415215 343.756913z" p-id="4213" fill="#33a809"></path><path d="M296.339052 427.280088l172.149416 0 0 17.22849-172.149416 0 0-17.22849Z" p-id="4214" fill="#33a809"></path><path d="M296.339052 489.058787l172.149416 0 0 17.20591-172.149416 0 0-17.20591Z" p-id="4215" fill="#33a809"></path><path d="M296.339052 554.088997l172.149416 0 0 17.20591-172.149416 0 0-17.20591Z" p-id="4216" fill="#33a809"></path><path d="M286.78774 655.45032l451.372878 0 0 17.22849-451.372878 0 0-17.22849Z" p-id="4217" fill="#33a809"></path><path d="M286.78774 741.525028l451.372878 0 0 17.20591-451.372878 0 0-17.20591Z" p-id="4218" fill="#33a809"></path></svg>