<?xml version="1.0" standalone="no"?><!DOCTYPE svg PUBLIC "-//W3C//DTD SVG 1.1//EN" "http://www.w3.org/Graphics/SVG/1.1/DTD/svg11.dtd"><svg t="1527405453708" class="icon" style="" viewBox="0 0 1024 1024" version="1.1" xmlns="http://www.w3.org/2000/svg" p-id="4778" xmlns:xlink="http://www.w3.org/1999/xlink" width="200" height="200"><defs><style type="text/css"></style></defs><path d="M640 64c0-35.584-28.928-64-64.576-64H448.576C412.352 0 384 28.672 384 64v64h256V64zM640.128 192H383.872C312.768 192 256 512 256 512v383.872C256 967.296 313.28 1024 383.872 1024h256.256C711.232 1024 768 966.656 768 895.936V512s-57.28-320-127.872-320zM512 896c-70.72 0-128-57.28-128-128s128-320 128-320 128 249.28 128 320-57.28 128-128 128z" fill="#33a809" p-id="4779"></path></svg>