<?xml version="1.0" standalone="no"?><!DOCTYPE svg PUBLIC "-//W3C//DTD SVG 1.1//EN" "http://www.w3.org/Graphics/SVG/1.1/DTD/svg11.dtd"><svg t="1527405510338" class="icon" style="" viewBox="0 0 1278 1024" version="1.1" xmlns="http://www.w3.org/2000/svg" p-id="5515" xmlns:xlink="http://www.w3.org/1999/xlink" width="249.609375" height="200"><defs><style type="text/css"></style></defs><path d="M753.36537 709.39234c-7.262411-18.01078-14.524823-24.692199-26.725674-24.692198a62.747234 62.747234 0 0 0-17.720284 3.195461c-36.312057 9.876879-72.333617 20.915745-108.064681 31.664113l-48.803404 14.234327a27.01617 27.01617 0 0 1-7.552908 0 20.915745 20.915745 0 0 1-13.362837-5.228937c-32.535603-29.049645-65.652199-58.099291-98.478297-88.891915l-45.89844-41.250496a11823.49617 11823.49617 0 0 0-112.712624-101.383262l-53.741844-47.350922-25.854185-23.239717L171.500972 406.695035l-5.519432-7.262411 8.424397-4.357447a38.926525 38.926525 0 0 1 11.910355-2.614468h1.742978l18.591773-5.519432c11.910355-3.485957 23.820709-6.971915 35.150071-11.038866a29.049645 29.049645 0 0 0 19.753759-20.044255 24.692199 24.692199 0 0 0-5.809929-22.368227 23.820709 23.820709 0 0 0-18.882269-9.295886 41.540993 41.540993 0 0 0-13.072341 2.323971l-58.099291 17.720284-58.09929 17.720284a36.312057 36.312057 0 0 0-23.239717 22.368227C58.207355 450.850496 32.062675 518.53617 4.175015 587.093333a26.435177 26.435177 0 0 0 8.133901 36.602554c16.848794 15.396312 35.150071 31.373617 53.160851 46.769929C116.306646 714.621277 168.305511 759.648227 219.723384 804.675177l68.557163 59.84227 174.297872 151.929645a25.854184 25.854184 0 0 0 17.139291 7.552908h4.06695c15.686809-2.614468 30.502128-5.809929 45.89844-9.00539l7.262411-1.452482L812.045653 958.638298a31.373617 31.373617 0 0 0 22.077731-13.94383 32.245106 32.245106 0 0 0 0-26.725674zM504.409909 784.340426l-29.049646 120.556028c-1.742979 6.100426-2.904965 12.781844-4.357447 19.753759s-5.228936 24.111206-5.228936 24.111205l-22.07773-19.172766c-18.301277-16.267801-35.731064-31.664113-54.032341-46.188936l-290.496454-252.731915c-11.329362-9.876879-22.368227-19.463262-33.988085-30.502127a22.658723 22.658723 0 0 1-4.357446-16.848795v-2.904964c18.88227-46.769929 37.474043-93.830355 58.09929-141.471773l3.195461-7.552908 27.597163 24.401702 24.692199 20.625248 111.841135 100.221277q106.321702 95.282837 213.224397 190.565674a15.977305 15.977305 0 0 1 4.93844 17.139291z m248.083971 131.304397L523.001682 961.543262l-9.00539 1.742979 2.323971-9.00539c9.00539-37.183546 17.720284-73.495603 26.435178-109.226667l11.910354-49.674893a18.301277 18.301277 0 0 1 12.491348-12.781844c41.540993-13.362837 87.148936-26.725674 136.823829-41.250497l4.93844-1.452482 2.033475 4.93844c16.848794 42.412482 33.407092 84.824965 49.96539 128.108936l14.524823 38.055035zM269.97927 277.133617l148.734185 119.103546 148.734184 119.103546 141.471773 112.712624a29.049645 29.049645 0 0 0 17.429787 7.843405 23.530213 23.530213 0 0 0 6.971915 0c10.167376-2.614468 19.753759-4.357447 29.049646-6.100426l13.07234-2.323972c50.836879-10.457872 102.545248-20.044255 154.253617-29.049645l61.875745-11.910355 62.456737-11.910354a31.083121 31.083121 0 0 0 23.82071-13.94383 29.049645 29.049645 0 0 0 0-25.563688c-20.334752-43.864965-41.540993-87.148936-62.747234-130.723404L987.796008 348.595745a47.641418 47.641418 0 0 0-11.619858-14.234327l-179.526809-139.438297c-113.293617-87.148936-220.486809-171.392908-236.173617-182.72227l-6.100425-4.647943a42.121986 42.121986 0 0 0-9.87688-7.552908h-5.809929a50.546383 50.546383 0 0 0-11.619858 2.033475l-6.971915 1.452482c-19.753759 4.357447-48.803404 11.038865-77.562553 18.010781s-58.099291 13.94383-79.305532 18.301276a39.798014 39.798014 0 0 0-32.245106 29.049646c-22.94922 58.099291-46.769929 116.198582-70.881135 174.297872a25.854184 25.854184 0 0 0 9.876879 33.988085z m673.080284 116.198582a13.653333 13.653333 0 0 1 13.07234 9.295886c9.00539 18.88227 18.01078 37.764539 27.306667 56.356312s18.88227 38.926525 27.01617 56.646809a14.815319 14.815319 0 0 1 3.485958 7.262411l2.033475 6.390922-10.457872 2.033475-232.397163 45.026951-9.87688 2.033475 3.195461-9.586383c3.776454-11.329362 6.971915-22.658723 9.87688-33.697589l2.323971-8.133901 25.563688-84.243971a19.753759 19.753759 0 0 1 14.815319-15.396312c39.217021-10.457872 78.434043-20.915745 116.198582-32.245107a23.239716 23.239716 0 0 1 7.843404-2.614468z m-489.486525-319.5461c23.820709-5.809929 46.479433-11.038865 69.719149-15.396312a25.273191 25.273191 0 0 1 14.234326 6.100426l137.69532 106.031205 140.600283 108.064681c18.301277 14.234326 36.312057 29.049645 55.194326 42.412483l37.764539 29.049645-13.362836 2.323972a49.093901 49.093901 0 0 0-7.843405 2.323971l-4.647943 1.452482c-26.725674 7.552908-53.741844 15.396312-80.758014 22.077731h-4.93844a21.787234 21.787234 0 0 1-14.234326-4.357447l-348.595745-278.295603-2.323971-2.033475-3.195461-2.904964-7.262412-7.552908zM319.654164 232.397163c15.396312-35.440567 29.049645-70.590638 43.864965-105.740709a39.217021 39.217021 0 0 1 4.06695-10.457872l3.485957-5.228937 4.93844 4.066951 37.183546 29.049645 37.183546 29.049646 283.234043 224.844255 8.424397 6.681418a21.787234 21.787234 0 0 1 9.586383 29.049646c-7.843404 23.820709-15.105816 47.931915-22.077731 71.752624-4.06695 13.653333-8.133901 27.306667-11.910354 39.217021a20.915745 20.915745 0 0 1-2.614468 9.00539l-1.742979 3.776454-2.904965 7.262411-6.100425-4.647943-34.569078-27.306667c-12.491348-9.876879-24.692199-19.753759-37.474043-29.049645l-3.485957-2.904964c-101.092766-81.339007-203.347518-162.387518-303.278298-242.855036A18.88227 18.88227 0 0 1 319.654164 232.397163z m953.990355 592.32227l-106.031206-192.308653c-6.390922-12.200851-13.653333-17.139291-23.239716-17.139291a287.591489 287.591489 0 0 1-40.379007 5.809929l-129.851915 25.854185a29.049645 29.049645 0 0 0-25.273192 23.820709c-2.033475 12.491348-3.776454 24.111206-6.681418 36.602553l-40.088511 196.956596a26.144681 26.144681 0 0 0 6.100426 21.496738 24.401702 24.401702 0 0 0 18.01078 9.295886H929.696717c24.401702-3.195461 49.674894-9.00539 74.367092-14.524823l15.105816-3.485957 116.198582-24.692199 118.232056-24.982695a29.049645 29.049645 0 0 0 21.787234-14.815319 29.049645 29.049645 0 0 0-1.742978-27.887659z m-68.266667 0l-106.321702 22.368227-129.851915 27.306666-8.714894 1.742979 1.742979-8.714894c3.776454-19.172766 6.971915-36.89305 10.167376-54.03234l2.323972-12.781844c2.904965-14.524823 5.809929-29.049645 9.00539-44.155461s6.390922-30.502128 9.295886-45.89844a20.044255 20.044255 0 0 1 17.139291-16.848794l53.451347-10.457872 53.160851-10.457873h3.485958c5.519433 0 12.200851 2.904965 13.362837 6.971915l79.305532 143.795745z" p-id="5516" fill="#33a809"></path></svg>