<?xml version="1.0" standalone="no"?><!DOCTYPE svg PUBLIC "-//W3C//DTD SVG 1.1//EN" "http://www.w3.org/Graphics/SVG/1.1/DTD/svg11.dtd"><svg t="1527405606865" class="icon" style="" viewBox="0 0 1260 1024" version="1.1" xmlns="http://www.w3.org/2000/svg" p-id="6234" xmlns:xlink="http://www.w3.org/1999/xlink" width="246.09375" height="200"><defs><style type="text/css"></style></defs><path d="M810.931445 1023.842492h-361.678417a215.865115 215.865115 0 0 1-153.570586-63.003317 184.678473 184.678473 0 0 1-53.159048-147.900287l28.509001-277.175218-41.267173 35.793759a39.377073 39.377073 0 0 1-52.135245-1.33882L10.553056 408.418215A32.56484 32.56484 0 0 1 8.269185 363.292089l261.503143-304.739169a37.998876 37.998876 0 0 1 18.192208-11.419351L448.426109 1.534918a39.377073 39.377073 0 0 1 31.777298 4.488987 34.1793 34.1793 0 0 1 16.105223 25.791983c0.94505 10.316793 13.19132 102.38039 133.882049 102.38039s133.015753-91.906089 133.882049-102.38039a34.021791 34.021791 0 0 1 16.183977-25.555721 39.377073 39.377073 0 0 1 31.501658-4.488986l160.461573 45.59865a38.038253 38.038253 0 0 1 18.152831 11.419352l261.503143 304.739169a32.525462 32.525462 0 0 1-2.28387 45.126126l-167.116299 161.800393a39.377073 39.377073 0 0 1-52.135245 1.338821l-41.188418-35.79376 28.469624 277.175218a184.481588 184.481588 0 0 1-53.080295 147.900287 216.101378 216.101378 0 0 1-153.609962 62.767055z" p-id="6235" fill="#33a809"></path></svg>