<?xml version="1.0" standalone="no"?><!DOCTYPE svg PUBLIC "-//W3C//DTD SVG 1.1//EN" "http://www.w3.org/Graphics/SVG/1.1/DTD/svg11.dtd"><svg t="1527405658152" class="icon" style="" viewBox="0 0 1025 1024" version="1.1" xmlns="http://www.w3.org/2000/svg" p-id="6968" xmlns:xlink="http://www.w3.org/1999/xlink" width="200.1953125" height="200"><defs><style type="text/css"></style></defs><path d="M962.5856 0l-352.27648 0c-33.86368 0-61.41952 27.55072-61.41952 61.41952l0 901.16608c0 33.86368 27.55584 61.4144 61.41952 61.4144l352.27648 0c33.86368 0 61.4144-27.55072 61.4144-61.4144L1024 61.41952C1024 27.55072 996.44928 0 962.5856 0zM962.56 61.41952l0.03072 466.72896-352.27136 0L610.30912 61.44 962.56 61.41952zM610.3296 962.5856l-0.01024-373.00224 352.27648 0L962.62144 962.56 610.3296 962.5856z" p-id="6969" fill="#33a809"></path><path d="M676.06016 489.12896c16.96256 0 30.72-13.75744 30.72-30.72l0-39.57248c0-16.96256-13.75744-30.72-30.72-30.72s-30.72 13.75744-30.72 30.72l0 39.57248C645.34016 475.37664 659.09248 489.12896 676.06016 489.12896z" p-id="6970" fill="#33a809"></path><path d="M676.06016 634.68032c-16.96256 0-30.72 13.75744-30.72 30.72l0 39.57248c0 16.96256 13.75744 30.72 30.72 30.72s30.72-13.75744 30.72-30.72l0-39.57248C706.78016 648.43264 693.02272 634.68032 676.06016 634.68032z" p-id="6971" fill="#33a809"></path><path d="M464.20992 337.61792 61.44 337.61792c-33.87904 0-61.44 27.56096-61.44 61.44L0 962.56c0 33.87904 27.56096 61.44 61.44 61.44l402.76992 0c33.87904 0 61.44-27.56096 61.44-61.44L525.64992 399.05792C525.64992 365.17888 498.08896 337.61792 464.20992 337.61792zM61.44 962.56 61.44 399.05792l402.76992 0L464.25088 962.56 61.44 962.56z" p-id="6972" fill="#33a809"></path><path d="M143.34976 501.79072m-37.28896 0a7.283 7.283 0 1 0 74.57792 0 7.283 7.283 0 1 0-74.57792 0Z" p-id="6973" fill="#33a809"></path><path d="M262.82496 501.79072m-37.28896 0a7.283 7.283 0 1 0 74.57792 0 7.283 7.283 0 1 0-74.57792 0Z" p-id="6974" fill="#33a809"></path><path d="M382.30016 501.79072m-37.28896 0a7.283 7.283 0 1 0 74.57792 0 7.283 7.283 0 1 0-74.57792 0Z" p-id="6975" fill="#33a809"></path><path d="M383.5392 631.78752 142.1056 631.78752c-25.40544 0-46.08 20.66944-46.08 46.08l0 157.73184c0 25.41056 20.67456 46.08 46.08 46.08L383.5392 881.67936c25.41056 0 46.08-20.66944 46.08-46.08l0-157.73184C429.6192 652.45696 408.94976 631.78752 383.5392 631.78752zM398.8992 835.59424c0 8.46848-6.89152 15.36-15.36 15.36L142.1056 850.95424c-8.46848 0-15.36-6.89152-15.36-15.36l0-157.73184c0-8.46848 6.89152-15.36 15.36-15.36L383.5392 662.5024c8.46848 0 15.36 6.89152 15.36 15.36L398.8992 835.59424z" p-id="6976" fill="#33a809"></path><path d="M69.78048 282.50112c5.01248 10.91072 15.90784 17.90464 27.91936 17.90464l85.22752 0c10.32192 0 19.94752-5.18144 25.63584-13.79328L260.77184 207.5648l52.6848 0c16.96256 0 30.72-13.75744 30.72-30.72s-13.75744-30.72-30.72-30.72L55.08096 146.1248c-10.46016 0-20.20864 5.32992-25.86112 14.13632-5.64736 8.8064-6.42048 19.88608-2.05824 29.39904L69.78048 282.50112zM187.14112 207.5648 166.4 238.96576l-48.9984 0-14.4128-31.40096L187.14112 207.5648z" p-id="6977" fill="#33a809"></path></svg>