<?xml version="1.0" standalone="no"?><!DOCTYPE svg PUBLIC "-//W3C//DTD SVG 1.1//EN" "http://www.w3.org/Graphics/SVG/1.1/DTD/svg11.dtd"><svg t="1527412326053" class="icon" style="" viewBox="0 0 1024 1024" version="1.1" xmlns="http://www.w3.org/2000/svg" p-id="881" xmlns:xlink="http://www.w3.org/1999/xlink" width="200" height="200"><defs><style type="text/css"></style></defs><path d="M844.8 938.666667H179.2c-4.693333 0-8.533333-3.84-8.533333-8.533334v-25.6c0-4.693333 3.84-8.533333 8.533333-8.533333h665.6c4.693333 0 8.533333 3.84 8.533333 8.533333v25.6c0 4.693333-3.84 8.533333-8.533333 8.533334z" fill="#33a809" p-id="882"></path><path d="M633.6 596.48h-238.933333c-4.693333 0-8.533333 3.84-8.533334 8.533333v324.266667c0 4.693333 3.84 8.533333 8.533334 8.533333h238.933333c4.693333 0 8.533333-3.84 8.533333-8.533333v-324.266667c0-5.12-3.84-8.533333-8.533333-8.533333z m-34.133333 312.32c0 4.693333-3.84 8.533333-8.533334 8.533333h-153.6c-4.693333 0-8.533333-3.84-8.533333-8.533333v-261.12c0-4.693333 3.84-8.533333 8.533333-8.533333h153.6c4.693333 0 8.533333 3.84 8.533334 8.533333V908.8zM204.8 938.666667h-25.6c-4.693333 0-8.533333-3.84-8.533333-8.533334V392.533333c0-4.693333 3.84-8.533333 8.533333-8.533333h25.6c4.693333 0 8.533333 3.84 8.533333 8.533333v537.6c0 4.693333-3.84 8.533333-8.533333 8.533334zM844.8 938.666667h-25.6c-4.693333 0-8.533333-3.84-8.533333-8.533334V392.533333c0-4.693333 3.84-8.533333 8.533333-8.533333h25.6c4.693333 0 8.533333 3.84 8.533333 8.533333v537.6c0 4.693333-3.84 8.533333-8.533333 8.533334z" fill="#33a809" p-id="883"></path><path d="M936.106667 439.893333l-418.56-351.146666-0.426667-0.426667c-0.426667 0-0.426667-0.426667-0.853333-0.426667 0 0-0.426667 0-0.426667-0.426666-0.426667 0-0.426667-0.426667-0.853333-0.426667h-5.12c-0.426667 0-0.426667 0.426667-0.853334 0.426667 0 0-0.426667 0-0.426666 0.426666-0.426667 0-0.426667 0.426667-0.853334 0.426667l-0.426666 0.426667-418.56 351.146666c-3.413333 2.986667-4.266667 8.533333-0.853334 11.946667l16.64 19.626667c2.986667 3.413333 8.533333 4.266667 11.946667 0.853333l390.826667-328.106667c2.986667-2.56 7.68-2.56 11.093333 0l390.826667 328.106667c3.413333 2.986667 8.96 2.56 11.946666-0.853333l16.64-19.626667c2.133333-3.413333 1.706667-8.96-1.706666-11.946667z" fill="#33a809" p-id="884"></path></svg>